<?xml version="1.0" encoding="UTF-8"?>
<svg id="svg4141" xmlns="http://www.w3.org/2000/svg" viewBox="0 0 280.51 680.07">
  <defs>
    <style>
      .cls-1, .cls-2 {
        fill: none;
        stroke: #fff;
        stroke-miterlimit: 10;
        stroke-width: 7px;
      }

      .cls-2 {
        fill-rule: evenodd;
      }
    </style>
  </defs>
  <path class="cls-2" d="m278.85,494.45c-1.24,12.02-4.25,22.65-9.03,34.45-4.07,10.03-11.14,25.11-19.06,37.65-.51-.83-1.36-1.95-2.62-2.93-1.67-1.29-3.03-1.51-3.4-1.56-.93-.13-1.74-.02-2.79.24-3.34.82-5.55,1.37-7.13,3.38-1.63,2.09-1.68,4.62-1.7,5.45-.02,1.33.22,1.59.57,5.07.23,2.36.23,2.88,0,3.56-.78,2.25-3.11,3.21-3.57,3.38-2.19.84-4.14.21-4.69,0-2.71-1.48-5.85-3.23-9.39-5.25-1.71-.98-3.39-1.94-5.39-3.44-.19-.14-.38-.29-.58-.44-.38-.29-1.84-1.42-3.11-2.64-3.76-3.61-5.76-7.87-6.51-9.69-.64-1.51-2.94-7.41-2.05-15.14,0-.06,0-.14.03-.25,1.2-9.66,8.13-17.56,9.16-18.71,1.36-1.51,6.29-4.7,16.15-11.07.31-.21,1.11-.71,2.25-.94.55-.11,2.85-.5,4.88.94,2.09,1.48,2.45,3.88,2.63,5.07.13.89.07,1.6.05,1.76-.1,1.02-.4,1.81-.64,2.32-.12.48-.27,1.21-.35,2.11-.11,1.32-.34,3.9,1.13,6.38.54.93,1.15,1.55,1.48,1.86,1.46,1.36,3.02,1.82,4.16,2.14,1.38.38,2.74.76,4.46.42,2.07-.42,3.38-1.64,4.16-2.35.35-.32,1.54-1.47,2.8-4.02,1.04-2.1,1.23-3.36,2.14-6.72.43-1.6.96-3.31,2.01-6.72,1.36-4.45,1.74-5.31,2.62-8.45.62-2.16,1.05-3.94,1.32-5.07-1.11-.64-1.73-1.41-2.05-1.88-.45-.67-1.07-1.59-.77-2.43.2-.54.69-.81,1.45-1.2.65-.34,1.69-.77,3.09-.95.52-1.29,1.27-3.67,1.01-6.66-.19-2.3-.91-3.96-1.36-5-1.5-3.41-3.69-5.5-4.56-6.28-2.95-2.61-6.03-3.61-7.64-4.01-.7,1.21-1.55,1.89-2.07,2.23-.69.46-1.58,1.05-2.33.75-.42-.17-.61-.55-1.19-1.97-.3-.76-.7-1.77-1.13-2.97-5.57-1.29-11.14-2.58-16.71-3.88-3.15-.73-6.3-1.46-9.45-2.19-.83-.13-2.28-.24-3.97.22-2.35.63-3.78,1.98-4.15,2.36-1.64,1.62-2.18,3.4-2.41,4.2-.26.89-.91,3.27.07,6.04.23.65,1.03,2.69,3.02,4.2.88.67,1.7,1.02,3.21,1.66,1.31.55,2.45.92,3.28,1.15.47.17,1.46.6,2.25,1.58.89,1.1,1.03,2.25,1.11,2.93.27,2.17-.61,3.82-.84,4.22-.67,1.18-1.55,1.89-2.07,2.25-2.58,1.59-6.34,3.74-11.07,5.92-7.96,3.66-7.09,3.12-9.11,3.66-.6.16-1.2.3-1.79.41-10.13,1.9-19.18-2.78-19.76-3.09,0,0-12.19-6.49-15.7-21.53-.39-1.65-.66-3.48-.66-3.48-.1-.75-.21-1.75-.32-2.94-.28-3.27-.07-3.49-.25-7.48-.12-2.77-.31-4.71.42-6.94.13-.4.24-.65.35-.86,1.28-2.54,4.01-3.31,4.21-3.37,2.48-.66,5.19.21,7.06,2.2,1.44,1.6,2.9,2.54,3.88,3.06.92.5,1.91,1.02,3.32,1.22,1.95.27,3.48-.29,4.23-.56,1.82-.68,3.02-1.75,3.63-2.38.48-.5,1.68-1.77,2.28-3.81.76-2.57.12-4.75-.19-5.64-.84-2.47-2.31-3.99-3.38-5.16-4.03-4.43-3.3-3.97-2.06-2.89.08.08.17.15.26.24.23.2.47.42.69.62-.01-.02-.03-.03-.04-.05-.08-.07-.15-.14-.23-.22l-.22-.22c-.14-.14-.3-.29-.47-.45-.16-.17-.35-.34-.54-.53-.06-.06-.13-.13-.2-.19-.13-.14-.27-.28-.42-.42l-.18-.18c-.1-.1-.21-.2-.31-.3-.16-.15-.33-.31-.5-.48-.06-.06-.12-.12-.18-.17-.12-.12-.24-.23-.36-.35-.59-.58-1.24-1.22-1.97-1.93-.45-.44-.92-.9-1.43-1.4-4.9-4.78-8.14-7.93-9.86-9.61-1.02.39-1.9.51-2.52.55-.95.05-1.62.08-2.08-.36-.47-.46-.45-1.16-.42-2.08.03-.62.13-1.59.6-2.74-.79-1.03-2.2-2.61-4.4-3.86-2.96-1.68-5.68-1.82-7.22-1.89-1.34-.05-6.14-.11-10.8,3.01-1.29.86-2.24,1.75-2.86,2.39.83,1.52.87,2.8.83,3.45-.03.66-.07,1.24-.5,1.66-.6.59-1.57.48-2.71.36-.98-.11-1.76-.35-2.27-.54-3.98,4.09-7.07,7.23-9.1,9.29-2.41,2.44-4.58,5.11-7.04,7.51-1.54,1.5-2.71,2.54-3.66,4.5-.51,1.06-1.73,3.59-.94,6.48.56,2.04,1.86,3.31,2.91,4.34.84.83,1.91,1.87,3.66,2.51,2.87,1.04,5.45.22,6.1,0,1.88-.63,3.24-1.76,4.57-2.87,1.76-1.46,1.82-1.99,2.92-2.38,2.35-.83,4.73.66,5,.84,1.77,1.15,2.43,2.86,2.9,4.13.76,2.02.75,3.62.57,8.16-.19,4.6-.29,6.9-.38,7.7-.39,3.35-.82,7.42-2.63,11.54-3.02,6.9-8.12,10.82-9.94,12.11-2.57,1.82-5.19,3.04-7.66,3.86-5.75,1.91-10.75,1.62-12.71,1.49-1.67-.12-5.97-.45-10.79-2.63-1.1-.49-1.93-.95-4.38-2.4-.48-.29-1.02-.61-1.63-.98-3.56-2.13-6.54-3.93-8.73-5.25-.53-.35-1.62-1.18-2.16-2.63-.92-2.5.54-4.8.94-5.45,1.74-2.74,4.74-3.36,5.35-3.47.22-.05.49-.13.81-.23.21-.07.44-.15.69-.24.89-.33,2.63-1.01,4.23-2.53.79-.76,2.02-1.94,2.53-3.85.47-1.75.11-3.17-.31-4.82-.36-1.4-.83-3.24-2.45-4.81-.88-.85-1.74-1.27-2.19-1.5-.36-.17-2.05-.97-4.94-.95h-.23c-1.42.03-2.51.26-3.99.6-4.23.95-7.28,1.77-9.91,2.42-2.83.7-2.62.56-5.45,1.27-2.63.66-5.76,1.5-9.29,2.53.07.53.18,1.98-.71,3.18-.22.31-.57.76-1.17.95-.88.29-1.7-.15-2.14-.39-1.16-.63-1.69-1.67-1.89-2.14-.88.06-2.14.23-3.57.75-3.36,1.22-5.28,3.49-6.19,4.6-2.77,3.36-3.43,6.88-3.66,8.26-.65,3.75,0,6.83.5,8.54.55-.05,1.63-.06,2.74.54.56.3,1.52.81,1.67,1.74.14.8-.4,1.47-1.02,2.24-.7.89-1.48,1.42-1.99,1.72,2.65,8.65,5.3,17.3,7.95,25.95.37.95,1.49,3.4,4.13,4.88,1.07.6,2.05.83,2.53.94.93.21,3.45.63,6.24-.55.7-.3,2.23-.97,3.56-2.55,1.54-1.82,1.92-3.8,2.03-4.6.08-.56.06-.85-.66-6.38-.23-1.78-.33-2.51,0-3.47.55-1.6,1.79-2.49,2.25-2.82,1.69-1.17,3.44-1.19,4.12-1.16,1.93.08,3.27.98,3.77,1.35,4.85,3.13,9.7,6.26,14.55,9.39,1.45,1.3,3.34,3.21,5.16,5.82,3.53,5.07,4.7,9.81,4.97,10.98,2.26,9.76-1.17,17.76-2.06,19.71-2.84,6.17-7.06,9.82-8.54,11.07-1.29,1.09-2.55,1.91-4.88,3.47-.73.49-1.44.96-2.13,1.4-2.89,1.87-5.36,3.32-7.19,4.36-2.22,1.54-5.12,1.63-7.34.25-2.34-1.46-3.16-4.09-3.09-5.95.03-.94.27-1.7.47-2.2.34-1.01.75-2.62.69-4.61-.03-1.09-.08-2.55-.7-4.07-1.9-1.56-3.74-3.16-5.52-4.79-1.11-.35-3.27-.83-5.75-.1-.43.12-1.76.55-3.17,1.61-2.52,1.91-3.47,4.5-3.82,5.66-.6,2.02-1.52,5.08-2.6,8.86-.03.11-.06.22-.1.33-2.88-2.38-5.81-5.09-8.71-8.16-13.66-14.48-19.19-29.24-22.12-37.33-10.25-28.26-7.86-53.86-6.22-64.97,7.59-51.38,38.74-60.99,50.43-112.81,5.32-23.57,3.88-43.78,2.28-55.79,1.06,0,17.73,9.97,18.88,27.41,1.35,20.5,0,39.14,0,39.14,0,0,23.8-20.75,10.34-63.11-13.47-42.37-10.93-25.97-37.24-70.24-10.82-18.21-20.31-31.15-21.62-76.38,18.14,40.06,18.74,28.03,53.01,58.29l14.12,19.25s-27.94-54.02-39.12-89.24c-10.11-31.83-11.18-57.44,10.13-98.14,12.44-23.76,15.51-41.71,15.51-41.71,0,0,7.24,17.05,2.75,34.38s-21.36,45.19-6.6,69.58c14.76,24.38,42.36,48.77,42.36,48.77,0,0,9.1,1.01-16.21-42.9-17.01-29.52-7.54-41.17-7.54-41.17,0,0,9.34,30.88,26.31,41.71,16.09,10.27,32.99,29.41,44.28,54.55,18.77,41.81,2.52,71.83,7.01,91.72,4.5,19.89,8.87,25.46,8.87,25.46,0,0-3.55-27.41,3.51-51.79,7.06-24.39,20.4-31.38,13.98-58.33-6.42-26.95-4.68-20.23-4.68-20.23,0,0,16.02,20.96,30.35,51.67,15.78,33.84,12.83,55.6,7.06,74.44-5.77,18.84-12.84,20.54-7.06,41.71,5.77,21.18,6.57,16.11,6.57,16.11.13-20,10.92-32.12,11.4-52.44,0,0,23.2,19.32,17.32,45.32-8.98,37.86-16.04,41.71-1.92,79.57,7.05,18.93,19.57,43.82,22,59.95.35,2.37,1.1,11.27-.1,22.84Z"/>
  <path class="cls-2" d="m88.81,504.44c-.48-.29-1.02-.61-1.63-.98-3.56-2.13-6.54-3.93-8.73-5.25-.53-.35-1.62-1.18-2.16-2.63-.92-2.5.54-4.8.94-5.45,1.74-2.74,4.74-3.36,5.35-3.47.22-.05.49-.13.81-.23.42,1.93.9,3.88,1.44,5.86,1.17,4.3,2.52,8.35,3.98,12.15Z"/>
  <path class="cls-2" d="m93.19,562.03c-2.84,6.17-7.06,9.82-8.54,11.07-1.29,1.09-2.55,1.91-4.88,3.47-.73.49-1.44.96-2.13,1.4-6.16-3.78-11.89-7.88-17.16-12.22-1.9-1.56-3.74-3.16-5.52-4.79-18.92-17.27-30.74-37.64-33.14-56.77-1.17-9.37-2.47-21.09,2.08-34.56,3.62-10.74,8.19-14.51,13.4-29.15,3-8.47,4.5-15.74,5.3-20.56,4.58,25.16.02,38.24-.38,39.32,1.11-2.37,2.93-5.89,5.61-9.85,7.78-11.48,12.78-11.79,18.23-19.16,11.07-14.99,8.54-38.21,8.54-38.21,13.08,15.6,10.29,31.13,7.79,45.13-1.23,6.92-2.53,17.59-1.67,30.58-1.42.03-2.51.26-3.99.6-4.23.95-7.28,1.77-9.91,2.42-2.83.7-2.62.56-5.45,1.27-2.63.66-5.76,1.5-9.29,2.53.07.53.18,1.98-.71,3.18-.22.31-.57.76-1.17.95-.88.29-1.7-.15-2.14-.39-1.16-.63-1.69-1.67-1.89-2.14-.88.06-2.14.23-3.57.75-3.36,1.22-5.28,3.49-6.19,4.6-2.77,3.36-3.43,6.88-3.66,8.26-.65,3.75,0,6.83.5,8.54.55-.05,1.63-.06,2.74.54.56.3,1.52.81,1.67,1.74.14.8-.4,1.47-1.02,2.24-.7.89-1.48,1.42-1.99,1.72,2.65,8.65,5.3,17.3,7.95,25.95.37.95,1.49,3.4,4.13,4.88,1.07.6,2.05.83,2.53.94.93.21,3.45.63,6.24-.55.7-.3,2.23-.97,3.56-2.55,1.54-1.82,1.92-3.8,2.03-4.6.08-.56.06-.85-.66-6.38-.23-1.78-.33-2.51,0-3.47.55-1.6,1.79-2.49,2.25-2.82,1.69-1.17,3.44-1.19,4.12-1.16,1.93.08,3.27.98,3.77,1.35,4.85,3.13,9.7,6.26,14.55,9.39,1.45,1.3,3.34,3.21,5.16,5.82,3.53,5.07,4.7,9.81,4.97,10.98,2.26,9.76-1.17,17.76-2.06,19.71Z"/>
  <path class="cls-2" d="m191.06,481.93c-1.14,12.87.58,21.58,1.6,27.67-10.13,1.9-19.18-2.78-19.76-3.09,0,0-12.19-6.49-15.7-21.53-.39-1.65-.66-3.48-.66-3.48-.1-.75-.21-1.75-.32-2.94-.28-3.27-.07-3.49-.25-7.48-.12-2.77-.31-4.71.42-6.94.13-.4.24-.65.35-.86,1.28-2.54,4.01-3.31,4.21-3.37,2.48-.66,5.19.21,7.06,2.2,1.44,1.6,2.9,2.54,3.88,3.06.92.5,1.91,1.02,3.32,1.22,1.95.27,3.48-.29,4.23-.56,1.82-.68,3.02-1.75,3.63-2.38.48-.5,1.68-1.77,2.28-3.81.76-2.57.12-4.75-.19-5.64-.84-2.47-2.31-3.99-3.38-5.16-4.03-4.43-3.3-3.97-2.06-2.89.08.08.17.15.26.24.23.2.47.42.69.62-.01-.02-.03-.03-.04-.05-.08-.07-.15-.14-.23-.22l-.22-.22c-.14-.14-.3-.29-.47-.45-.16-.17-.35-.34-.54-.53-.06-.06-.13-.13-.2-.19-.13-.14-.27-.28-.42-.42l-.18-.18c-.1-.1-.21-.2-.31-.3-.16-.15-.33-.31-.5-.48-.06-.06-.12-.12-.18-.17-.12-.12-.24-.23-.36-.35-.59-.58-1.24-1.22-1.97-1.93-.45-.44-.92-.9-1.43-1.4-4.9-4.78-8.14-7.93-9.86-9.61-1.02.39-1.9.51-2.52.55-.95.05-1.62.08-2.08-.36-.47-.46-.45-1.16-.42-2.08.03-.62.13-1.59.6-2.74-.79-1.03-2.2-2.61-4.4-3.86-2.96-1.68-5.68-1.82-7.22-1.89-1.34-.05-6.14-.11-10.8,3.01-1.29.86-2.24,1.75-2.86,2.39.83,1.52.87,2.8.83,3.45-.03.66-.07,1.24-.5,1.66-.6.59-1.57.48-2.71.36-.98-.11-1.76-.35-2.27-.54-3.98,4.09-7.07,7.23-9.1,9.29-2.41,2.44-4.58,5.11-7.04,7.51-1.54,1.5-2.71,2.54-3.66,4.5-.51,1.06-1.73,3.59-.94,6.48.56,2.04,1.86,3.31,2.91,4.34.84.83,1.91,1.87,3.66,2.51,2.87,1.04,5.45.22,6.1,0,1.88-.63,3.24-1.76,4.57-2.87,1.76-1.46,1.82-1.99,2.92-2.38,2.35-.83,4.73.66,5,.84,1.77,1.15,2.43,2.86,2.9,4.13.76,2.02.75,3.62.57,8.16-.19,4.6-.29,6.9-.38,7.7-.39,3.35-.82,7.42-2.63,11.54-3.02,6.9-8.12,10.82-9.94,12.11-2.57,1.82-5.19,3.04-7.66,3.86-1.98-6.27-5.33-12.44-9.71-29.2,0,0-15.7-42.26-5.42-74.49,1.07-3.35-1.39-2.98,11.2-29.09,16.41-34.05,7.29-31.13,5.33-64.83,9.11,30.31,30.59,44.28,18.87,68.93,12.49-19.24,25.85-41.03,15.59-64.82-10.25-23.8-30.36-31.18-34.05-54.16-3.69-22.97-2.05-32-2.05-32,0,0,16.51,31.18,29.54,40.62,32.73,23.71,38.07,49.1,34.87,86.98,0,0,9.18-13.7,9.03-26.67,19.11,37-12.32,46.54-12.31,68.51.41,16.41,4.92,28.72,4.92,28.72,0,0-4.1-26.67,16-36.92-6.77,7.79-4.51,23.79-.56,37.85,1.3,4.62,2.2,5.36,2.98,9.48,2.71,14.37-4.35,23.26-7.97,35.51-1.07,3.62-1.64,6.69-1.89,9.53Z"/>
  <path class="cls-2" d="m242.38,555.93c-7.06,6.77-19.98,16.29-31.73,18.52-.19-.14-.38-.29-.58-.44-.38-.29-1.84-1.42-3.11-2.64-3.76-3.61-5.76-7.87-6.51-9.69-.64-1.51-2.94-7.41-2.05-15.14,0-.06,0-.14.03-.25,1.2-9.66,8.13-17.56,9.16-18.71,1.36-1.51,6.29-4.7,16.15-11.07.31-.21,1.11-.71,2.25-.94.55-.11,2.85-.5,4.88.94,2.09,1.48,2.45,3.88,2.63,5.07.13.89.07,1.6.05,1.76-.1,1.02-.4,1.81-.64,2.32-.12.48-.27,1.21-.35,2.11-.11,1.32-.34,3.9,1.13,6.38.54.93,1.15,1.55,1.48,1.86,1.46,1.36,3.02,1.82,4.16,2.14,1.38.38,2.74.76,4.46.42,2.07-.42,3.38-1.64,4.16-2.35.35-.32,1.54-1.47,2.8-4.02,1.04-2.1,1.23-3.36,2.14-6.72.43-1.6.96-3.31,2.01-6.72,1.36-4.45,1.74-5.31,2.62-8.45.62-2.16,1.05-3.94,1.32-5.07-1.11-.64-1.73-1.41-2.05-1.88-.45-.67-1.07-1.59-.77-2.43.2-.54.69-.81,1.45-1.2.65-.34,1.69-.77,3.09-.95.52-1.29,1.27-3.67,1.01-6.66-.19-2.3-.91-3.96-1.36-5-1.5-3.41-3.69-5.5-4.56-6.28-2.95-2.61-6.03-3.61-7.64-4.01-.7,1.21-1.55,1.89-2.07,2.23-.69.46-1.58,1.05-2.33.75-.42-.17-.61-.55-1.19-1.97-.3-.76-.7-1.77-1.13-2.97-5.57-1.29-11.14-2.58-16.71-3.88,6.77-32.47,1.82-51.33-5.43-62.97-4.39-7.05-19.15-26.95-12.38-40.97,1.13-2.33,2.65-3.96,3.77-4.98.15,3.67.78,11.33,5.71,19.16,4.29,6.79,10.22,12.87,15.62,14.89-2.38-15.4-1.34-19.32,7.8-32-.29,2.82-.17,7.35.43,12.86.9,8.33,2.27,14.81,3.29,18.73,3.9,15.02,8.64,24.28,13.63,38.39.37,1.05,8.2,21.97,10,42.42,1.05,11.86,2.7,53.19-24.64,79.41Z"/>
  <path class="cls-1" d="m59.66,564.26c-1.4-1.99-3.31-2.77-4.14-3.1-.13-.05-.32-.12-.56-.2,1.78,1.63,3.62,3.23,5.52,4.79-.2-.49-.47-.99-.82-1.49Z"/>
  <path class="cls-1" d="m257.71,599.59c-.86-.31-1.16-.54-1.31-.87-.07-.15-.26-.65.36-1.87.34-.68,1.04-1.78,2.45-2.82-3.23-13.51-6.31-23.34-7.88-26.47-.11-.21-.29-.57-.57-1.01-.51-.83-1.36-1.95-2.62-2.93-1.67-1.29-3.03-1.51-3.4-1.56-.93-.13-1.74-.02-2.79.24-3.34.82-5.55,1.37-7.13,3.38-1.63,2.09-1.68,4.62-1.7,5.45-.02,1.33.22,1.59.57,5.07.23,2.36.23,2.88,0,3.56-.78,2.25-3.11,3.21-3.57,3.38-2.19.84-4.14.21-4.69,0-2.71-1.48-5.85-3.23-9.39-5.25-1.71-.98-3.39-1.94-5.39-3.44-.19-.14-.38-.29-.58-.44-.38-.29-1.84-1.42-3.11-2.64-3.76-3.61-5.76-7.87-6.51-9.69-.64-1.51-2.94-7.41-2.05-15.14,0-.06,0-.14.03-.25,1.2-9.66,8.13-17.56,9.16-18.71,1.36-1.51,6.29-4.7,16.15-11.07.31-.21,1.11-.71,2.25-.94.55-.11,2.85-.5,4.88.94,2.09,1.48,2.45,3.88,2.63,5.07.13.89.07,1.6.05,1.76-.1,1.02-.4,1.81-.64,2.32-.12.48-.27,1.21-.35,2.11-.11,1.32-.34,3.9,1.13,6.38.54.93,1.15,1.55,1.48,1.86,1.46,1.36,3.02,1.82,4.16,2.14,1.38.38,2.74.76,4.46.42,2.07-.42,3.38-1.64,4.16-2.35.35-.32,1.54-1.47,2.8-4.02,1.04-2.1,1.23-3.36,2.14-6.72.43-1.6.96-3.31,2.01-6.72,1.36-4.45,1.74-5.31,2.62-8.45.62-2.16,1.05-3.94,1.32-5.07-1.11-.64-1.73-1.41-2.05-1.88-.45-.67-1.07-1.59-.77-2.43.2-.54.69-.81,1.45-1.2.65-.34,1.69-.77,3.09-.95.52-1.29,1.27-3.67,1.01-6.66-.19-2.3-.91-3.96-1.36-5-1.5-3.41-3.69-5.5-4.56-6.28-2.95-2.61-6.03-3.61-7.64-4.01-.7,1.21-1.55,1.89-2.07,2.23-.69.46-1.58,1.05-2.33.75-.42-.17-.61-.55-1.19-1.97-.3-.76-.7-1.77-1.13-2.97-5.57-1.29-11.14-2.58-16.71-3.88-3.15-.73-6.3-1.46-9.45-2.19-.83-.13-2.28-.24-3.97.22-2.35.63-3.78,1.98-4.15,2.36-1.64,1.62-2.18,3.4-2.41,4.2-.26.89-.91,3.27.07,6.04.23.65,1.03,2.69,3.02,4.2.88.67,1.7,1.02,3.21,1.66,1.31.55,2.45.92,3.28,1.15.47.17,1.46.6,2.25,1.58.89,1.1,1.03,2.25,1.11,2.93.27,2.17-.61,3.82-.84,4.22-.67,1.18-1.55,1.89-2.07,2.25-2.58,1.59-6.34,3.74-11.07,5.92-7.96,3.66-7.09,3.12-9.11,3.66-.6.16-1.2.3-1.79.41-10.13,1.9-19.18-2.78-19.76-3.09,0,0-12.19-6.49-15.7-21.53-.39-1.65-.66-3.48-.66-3.48-.1-.75-.21-1.75-.32-2.94-.28-3.27-.07-3.49-.25-7.48-.12-2.77-.31-4.71.42-6.94.13-.4.24-.65.35-.86,1.28-2.54,4.01-3.31,4.21-3.37,2.48-.66,5.19.21,7.06,2.2,1.44,1.6,2.9,2.54,3.88,3.06.92.5,1.91,1.02,3.32,1.22,1.95.27,3.48-.29,4.23-.56,1.82-.68,3.02-1.75,3.63-2.38.48-.5,1.68-1.77,2.28-3.81.76-2.57.12-4.75-.19-5.64-.84-2.47-2.31-3.99-3.38-5.16-4.03-4.43-3.3-3.97-2.06-2.89.08.08.17.15.26.24.23.2.47.42.69.62-.01-.02-.03-.03-.04-.05-.08-.07-.15-.14-.23-.22l-.22-.22c-.14-.14-.3-.29-.47-.45-.16-.17-.35-.34-.54-.53-.06-.06-.13-.13-.2-.19-.13-.14-.27-.28-.42-.42l-.18-.18c-.1-.1-.21-.2-.31-.3-.16-.15-.33-.31-.5-.48-.06-.06-.12-.12-.18-.17-.12-.12-.24-.23-.36-.35-.59-.58-1.24-1.22-1.97-1.93-.45-.44-.92-.9-1.43-1.4-4.9-4.78-8.14-7.93-9.86-9.61-1.02.39-1.9.51-2.52.55-.95.05-1.62.08-2.08-.36-.47-.46-.45-1.16-.42-2.08.03-.62.13-1.59.6-2.74-.79-1.03-2.2-2.61-4.4-3.86-2.96-1.68-5.68-1.82-7.22-1.89-1.34-.05-6.14-.11-10.8,3.01-1.29.86-2.24,1.75-2.86,2.39.83,1.52.87,2.8.83,3.45-.03.66-.07,1.24-.5,1.66-.6.59-1.57.48-2.71.36-.98-.11-1.76-.35-2.27-.54-3.98,4.09-7.07,7.23-9.1,9.29-2.41,2.44-4.58,5.11-7.04,7.51-1.54,1.5-2.71,2.54-3.66,4.5-.51,1.06-1.73,3.59-.94,6.48.56,2.04,1.86,3.31,2.91,4.34.84.83,1.91,1.87,3.66,2.51,2.87,1.04,5.45.22,6.1,0,1.88-.63,3.24-1.76,4.57-2.87,1.76-1.46,1.82-1.99,2.92-2.38,2.35-.83,4.73.66,5,.84,1.77,1.15,2.43,2.86,2.9,4.13.76,2.02.75,3.62.57,8.16-.19,4.6-.29,6.9-.38,7.7-.39,3.35-.82,7.42-2.63,11.54-3.02,6.9-8.12,10.82-9.94,12.11-2.57,1.82-5.19,3.04-7.66,3.86-5.75,1.91-10.75,1.62-12.71,1.49-1.67-.12-5.97-.45-10.79-2.63-1.1-.49-1.93-.95-4.38-2.4-.48-.29-1.02-.61-1.63-.98-3.56-2.13-6.54-3.93-8.73-5.25-.53-.35-1.62-1.18-2.16-2.63-.92-2.5.54-4.8.94-5.45,1.74-2.74,4.74-3.36,5.35-3.47.22-.05.49-.13.81-.23.21-.07.44-.15.69-.24.89-.33,2.63-1.01,4.23-2.53.79-.76,2.02-1.94,2.53-3.85.47-1.75.11-3.17-.31-4.82-.36-1.4-.83-3.24-2.45-4.81-.88-.85-1.74-1.27-2.19-1.5-.36-.17-2.05-.97-4.94-.95h-.23c-1.42.03-2.51.26-3.99.6-4.23.95-7.28,1.77-9.91,2.42-2.83.7-2.62.56-5.45,1.27-2.63.66-5.76,1.5-9.29,2.53.07.53.18,1.98-.71,3.18-.22.31-.57.76-1.17.95-.88.29-1.7-.15-2.14-.39-1.16-.63-1.69-1.67-1.89-2.14-.88.06-2.14.23-3.57.75-3.36,1.22-5.28,3.49-6.19,4.6-2.77,3.36-3.43,6.88-3.66,8.26-.65,3.75,0,6.83.5,8.54.55-.05,1.63-.06,2.74.54.56.3,1.52.81,1.67,1.74.14.8-.4,1.47-1.02,2.24-.7.89-1.48,1.42-1.99,1.72,2.65,8.65,5.3,17.3,7.95,25.95.37.95,1.49,3.4,4.13,4.88,1.07.6,2.05.83,2.53.94.93.21,3.45.63,6.24-.55.7-.3,2.23-.97,3.56-2.55,1.54-1.82,1.92-3.8,2.03-4.6.08-.56.06-.85-.66-6.38-.23-1.78-.33-2.51,0-3.47.55-1.6,1.79-2.49,2.25-2.82,1.69-1.17,3.44-1.19,4.12-1.16,1.93.08,3.27.98,3.77,1.35,4.85,3.13,9.7,6.26,14.55,9.39,1.45,1.3,3.34,3.21,5.16,5.82,3.53,5.07,4.7,9.81,4.97,10.98,2.26,9.76-1.17,17.76-2.06,19.71-2.84,6.17-7.06,9.82-8.54,11.07-1.29,1.09-2.55,1.91-4.88,3.47-.73.49-1.44.96-2.13,1.4-2.89,1.87-5.36,3.32-7.19,4.36-2.22,1.54-5.12,1.63-7.34.25-2.34-1.46-3.16-4.09-3.09-5.95.03-.94.27-1.7.47-2.2.34-1.01.75-2.62.69-4.61-.03-1.09-.08-2.55-.7-4.07-1.9-1.56-3.74-3.16-5.52-4.79-1.11-.35-3.27-.83-5.75-.1-.43.12-1.76.55-3.17,1.61-2.52,1.91-3.47,4.5-3.82,5.66-.6,2.02-1.52,5.08-2.6,8.86-.03.11-.06.22-.1.33-.51,1.8-.88,3.08-1.52,5.35-.73,2.59-1.78,6.3-3.1,10.89.55.5,1.23,1.21,1.88,2.16.71,1.04,1.09,1.61.94,2.25-.18.79-1.04,1.2-1.88,1.6-1.05.5-2.02.63-2.63.65-.44,1-.98,2.52-1.12,4.42-.32,4.21,1.53,7.36,2.44,8.91,3.42,5.81,9.13,8.11,11.17,8.82.28-.51.77-1.27,1.59-1.97.75-.64,1.54-1.32,2.35-1.12.72.17,1.08.93,1.54,1.89.54,1.12.73,2.15.81,2.89,1.83.51,4.48,1.22,7.69,1.97,4.06.96,4.25.88,7.79,1.69,8.02,1.85,8.87,2.7,12.3,2.54,2.19-.1,5.5-.3,7.32-2.63.8-1.03,1.08-2.18,1.59-4.32.53-2.18.86-3.58.47-5.25-.58-2.48-2.36-3.97-3-4.51-1.07-.9-2.07-1.34-3.29-1.88-1.65-.72-3.11-1.1-4.13-1.31-.41-.3-2.22-1.7-2.62-4.22-.51-3.18,1.67-5.44,1.97-5.73.2-.2.4-.38,1.69-1.22,3.21-2.11,5.28-3.2,8.32-4.96.17-.11.55-.33,1.07-.61,1.01-.54,1.86-.93,2.43-1.19,2.4-1.27,6.78-3.21,12.58-3.56,2.59-.16,9.33-.23,16.42,3.66,9.87,5.41,13.43,14.65,14.46,17.46.55,1.5.9,2.81,1.12,3.75.47,3.18.85,6.7,1.03,10.51.18,3.72.16,7.18,0,10.32-.12.62-.51,2.2-1.92,3.34-.98.79-2.02,1.01-2.75,1.16-.61.13-1.69.35-3.02.06-1.62-.36-2.69-1.25-3.19-1.74-.49-.58-1.19-1.32-2.11-2.06-.54-.44-1.62-1.3-3.05-1.93-1.17-.51-3.82-1.68-6.48-.7-1.34.49-2.11,1.31-3.61,2.91-1.36,1.44-2.24,2.38-2.79,3.94-.96,2.75-.09,5.27.21,6.1.75,2.09,1.99,3.37,2.9,4.32,5.29,5.45,7.98,8.24,7.98,8.26,2.52,2.25,6.06,5.63,10.14,10.32.55-.17,1.35-.39,2.35-.48,1.34-.13,2.44-.24,2.97.39.33.4.28.96.17,2.05-.12,1.23-.39,2.22-.61,2.89.77,1.09,2.26,2.87,4.69,4.16,3.27,1.73,6.33,1.56,8.43,1.45,4.67-.26,7.88-2.11,8.65-2.58,1.51-.9,2.63-1.88,3.38-2.62-.15-.66-.36-1.58-.54-2.68-.32-1.88-.25-2.23-.05-2.49.52-.68,1.7-.59,2.76-.52,1.09.09,1.97.38,2.52.62,2.5-2.38,4.46-4.38,5.78-5.74,5.73-5.94,5.28-6.24,9.24-10.03,2.38-2.28,3.28-2.88,4.32-4.69.62-1.09,2.68-4.7,1.33-7.97-.52-1.26-1.37-2.09-3-3.67-1.58-1.53-2.64-2.07-2.97-2.23-.35-.17-1.56-.74-3.02-.87-3.26-.3-5.79,1.8-6.42,2.35-.43.37-1.08.91-1.88,1.54-1.14.89-1.7,1.33-2.15,1.56-1.99,1-4.29.21-4.58.1-3.43-1.24-4.21-5.12-4.25-5.31-.03-2.45-.05-5.91.05-10.07.11-4.73.18-7.13.55-9.19.36-2.03,1.25-6.66,4.51-11.57.65-.99,3.63-5.34,9.32-8.88,1.83-1.13,6.96-4.06,14.25-4.68,6.84-.58,11.99,1.17,13.27,1.64,1.44.51,2.55,1.05,4.43,1.95,4.03,1.94,7.21,3.82,9.4,5.2.54.24,1.3.62,2.14,1.18,1.16.78,2.15,1.45,2.8,2.62.88,1.6.63,3.25.57,3.69-.53,3.56-4.11,5.28-4.46,5.45-.86.23-2.06.6-3.46,1.18-1.38.57-2.15.89-2.97,1.44-.58.39-3.1,2.09-3.8,5.2-.42,1.84-.02,3.33.32,4.6.32,1.16.77,2.87,2.26,4.45,1.94,2.07,4.33,2.54,5.02,2.67,2.27.41,4.1-.14,5.02-.4,4.91-1.42,10.03-2.06,14.96-3.41,2.43-.66,6.23-1.69,11.01-2.93.05-.53.19-1.39.64-2.34.43-.91.9-1.92,1.76-2.09.73-.14,1.38.38,2.41,1.2.74.59,1.27,1.19,1.62,1.62,1.6-.22,4.08-.82,6.46-2.56,1.79-1.31,2.84-2.77,3.53-3.75,1.5-2.11,2.19-4.01,2.44-4.76.23-.69.97-3.03.92-6.18-.03-2.01-.37-3.66-.7-4.84-1.39-.08-2.47-.37-3.19-.63Zm-82.21-38.22c-.61,1.38-6.51,14.22-21.03,17.83-12.43,3.1-25.13-2.09-32.28-11.17-6.58-8.34-6.63-17.65-6.57-20.08.08-3.23.75-10.44,5.72-17.36,5.76-8.02,15.73-13.48,26.66-13.05,12.68.49,23.68,8.81,28.06,19.99,4.58,11.68.21,22.07-.56,23.84Z"/>
</svg>