<?xml version="1.0" encoding="UTF-8"?>
<svg id="svg4141" xmlns="http://www.w3.org/2000/svg" viewBox="0 0 278.51 675.54">
  <defs>
    <style>
      .cls-1 {
        fill: #3b3b3c;
      }

      .cls-1, .cls-2, .cls-3 {
        stroke-width: 0px;
      }

      .cls-2 {
        fill: #f7941d;
      }

      .cls-2, .cls-3 {
        fill-rule: evenodd;
      }

      .cls-3 {
        fill: #ff0;
      }
    </style>
  </defs>
  <path id="path4246-1" class="cls-2" d="m29.81,565.63c-13.66-14.47-19.19-29.24-22.12-37.32-10.25-28.26-7.86-53.87-6.22-64.97,7.59-51.38,38.74-60.99,50.43-112.81,5.32-23.57,3.88-43.77,2.28-55.79,1.06,0,17.73,9.97,18.88,27.41,1.35,20.5,0,39.14,0,39.14,0,0,23.8-20.75,10.34-63.11-13.47-42.36-10.93-25.96-37.24-70.24-10.82-18.21-20.31-31.15-21.62-76.38,18.14,40.06,18.74,28.03,53.01,58.29l14.12,19.25s-27.93-54.02-39.12-89.24c-10.11-31.83-11.18-57.44,10.13-98.14C75.13,17.95,78.2,0,78.2,0c0,0,7.24,17.05,2.75,34.38s-21.36,45.19-6.6,69.58c14.76,24.38,42.35,48.77,42.35,48.77,0,0,9.11,1.02-16.2-42.9-17.01-29.51-7.54-41.17-7.54-41.17,0,0,9.33,30.88,26.31,41.71,16.09,10.27,32.99,29.4,44.28,54.55,18.77,41.81,2.52,71.83,7.01,91.72,4.49,19.89,8.87,25.46,8.87,25.46,0,0-3.55-27.41,3.5-51.8,7.06-24.38,20.4-31.38,13.98-58.33-6.42-26.95-4.68-20.22-4.68-20.22,0,0,16.02,20.96,30.35,51.67,15.79,33.83,12.83,55.6,7.06,74.44-5.77,18.84-12.83,20.53-7.06,41.71,5.78,21.18,6.58,16.11,6.58,16.11.12-20,10.92-32.13,11.39-52.44,0,0,23.21,19.31,17.33,45.31-8.98,37.86-16.04,41.71-1.93,79.57,7.06,18.93,19.57,43.82,22,59.95.36,2.37,1.1,11.27-.1,22.85-1.24,12.02-4.25,22.65-9.03,34.44-8.42,20.76-29.63,63.07-44.77,59.97-3.18-.65-3.5-2.78-12.67-7.32-9.66-4.79-11.73-3.55-15.3-5.91-9.05-6-11.92-46.93-12.39-46.93-1.76.01-6.98,43.82-7.69,43.77-.66-.05,9.63-38.03-7.14-52.87-11.07-9.79-31.82-7.65-44.77,0-10.98,6.49-16.59,17.1-21.49,26.37-7.76,14.67-5.67,19.83-12.01,27.97-8.16,10.47-21.52,14.27-33.41,15.58-7.07-3.57-17.43-9.83-27.37-20.37Z"/>
  <path id="path4136-2" class="cls-3" d="m81.59,577.36c-34.87-19.76-57.34-49.49-60.76-76.71-1.18-9.36-2.48-21.08,2.07-34.56,3.62-10.73,8.2-14.5,13.4-29.15,3.01-8.47,4.51-15.73,5.3-20.56,4.78,26.29-.41,39.39-.41,39.39,1.11-2.37,2.94-5.91,5.64-9.91,7.77-11.48,12.78-11.79,18.23-19.17,11.07-14.98,8.54-38.21,8.54-38.21,13.08,15.61,10.29,31.13,7.8,45.13-1.95,10.92-4.08,31.18,2.44,55.14,6.04,22.2,16.81,37.73,23.65,46.18.26,4.29.06,11.18-3,18.77-6.14,15.21-19.24,21.92-22.9,23.65Z"/>
  <path id="path4138-6" class="cls-3" d="m124.1,516.07c-2.15,1.06-4.86,2.01-6.48.84-1.9-1.37-.07-4.76-1.03-9.09-1.73-7.82-5.46-12.87-10.61-32.58,0,0-15.71-42.26-5.42-74.49,1.07-3.35-1.39-2.97,11.19-29.09,16.41-34.05,7.3-31.13,5.33-64.82,9.11,30.31,30.59,44.27,18.87,68.93,12.49-19.25,25.85-41.03,15.59-64.82-10.26-23.8-30.36-31.18-34.05-54.16-3.69-22.98-2.05-32-2.05-32,0,0,16.52,31.18,29.54,40.62,32.73,23.72,38.08,49.1,34.87,86.98,0,0,9.18-13.7,9.03-26.67,19.12,37-12.32,46.54-12.31,68.52.41,16.41,4.92,28.72,4.92,28.72,0,0-4.1-26.67,16-36.92-6.77,7.8-4.51,23.8-.56,37.85,1.3,4.63,2.2,5.36,2.98,9.48,2.71,14.37-4.35,23.26-7.97,35.51-1.07,3.63-1.64,6.69-1.89,9.54-2.07,23.27,5.23,32.94.76,38.14-6.2,7.23-26-11.38-52.37-5.82-6.55,1.38-11.54,3.8-14.36,5.35Z"/>
  <path id="path4140-9" class="cls-3" d="m213.98,500.78c19.15-53.74,13.61-81.13,4.18-96.29-4.39-7.05-19.15-26.96-12.38-40.97,1.13-2.33,2.65-3.96,3.77-4.98.15,3.68.78,11.33,5.72,19.16,4.28,6.79,10.21,12.87,15.62,14.9-2.38-15.4-1.34-19.33,7.8-32-.28,2.82-.16,7.35.43,12.86.9,8.33,2.27,14.81,3.29,18.72,3.9,15.02,8.64,24.28,13.63,38.4.37,1.05,8.2,21.96,10,42.42,1.05,11.86,2.7,53.19-24.64,79.4-10.08,9.66-32.08,24.93-45.61,16.61-8.53-5.24-10.01-17.59-10.32-23.18,9.51-15.02,19.02-30.03,28.53-45.05Z"/>
  <path class="cls-1" d="m256.71,596.06c-.86-.31-1.16-.54-1.31-.86-.07-.15-.26-.65.36-1.87.34-.68,1.04-1.79,2.46-2.82-3.23-13.51-6.31-23.34-7.88-26.47-.31-.62-1.26-2.45-3.19-3.94-1.67-1.29-3.03-1.51-3.4-1.56-.94-.13-1.75-.02-2.8.24-3.34.82-5.55,1.37-7.12,3.38-1.64,2.09-1.69,4.63-1.7,5.45-.03,1.33.22,1.59.56,5.07.23,2.36.23,2.89,0,3.57-.78,2.25-3.11,3.2-3.57,3.38-2.19.84-4.14.2-4.69,0-2.7-1.48-5.85-3.24-9.39-5.26-1.87-1.07-3.71-2.13-5.97-3.88-.38-.3-1.83-1.42-3.11-2.64-3.77-3.61-5.76-7.87-6.52-9.69-.63-1.52-2.94-7.41-2.05-15.14,0-.06.02-.14.03-.25,1.2-9.67,8.14-17.56,9.17-18.71,1.36-1.51,6.29-4.7,16.14-11.07.32-.21,1.11-.71,2.25-.94.55-.11,2.85-.5,4.88.94,2.09,1.48,2.45,3.88,2.63,5.07.13.89.07,1.6.05,1.76-.1,1.02-.4,1.82-.64,2.32-.12.48-.27,1.21-.35,2.11-.11,1.32-.33,3.9,1.13,6.38.55.93,1.15,1.55,1.48,1.86,1.46,1.37,3.02,1.82,4.16,2.14,1.38.38,2.74.77,4.46.42,2.07-.42,3.38-1.63,4.16-2.35.35-.32,1.54-1.46,2.8-4.01,1.04-2.1,1.23-3.36,2.14-6.72.43-1.6.96-3.31,2-6.72,1.37-4.45,1.74-5.31,2.63-8.45.61-2.17,1.05-3.94,1.31-5.07-1.11-.64-1.73-1.41-2.04-1.88-.45-.67-1.08-1.59-.77-2.44.2-.54.68-.8,1.45-1.2.65-.34,1.69-.77,3.09-.95.52-1.29,1.27-3.67,1.01-6.66-.2-2.3-.91-3.96-1.37-5-1.5-3.41-3.69-5.5-4.56-6.28-2.95-2.61-6.03-3.61-7.63-4.01-.71,1.21-1.55,1.88-2.07,2.23-.69.46-1.58,1.05-2.33.74-.42-.17-.62-.54-1.19-1.96-.31-.76-.7-1.77-1.13-2.97-8.72-2.02-17.45-4.04-26.17-6.07-.83-.13-2.27-.24-3.96.22-2.35.63-3.78,1.99-4.16,2.36-1.63,1.62-2.17,3.41-2.41,4.2-.26.89-.91,3.27.07,6.04.23.65,1.04,2.68,3.02,4.2.88.67,1.7,1.02,3.21,1.66,1.31.56,2.45.92,3.27,1.16.48.17,1.46.59,2.26,1.58.89,1.1,1.03,2.25,1.11,2.92.26,2.18-.62,3.82-.84,4.22-.67,1.18-1.54,1.89-2.06,2.25-2.59,1.59-6.35,3.74-11.07,5.91-7.96,3.66-7.09,3.12-9.1,3.66-10.84,2.89-20.94-2.35-21.56-2.68,0,0-12.19-6.49-15.7-21.53-.39-1.65-.66-3.48-.66-3.48-.1-.75-.21-1.75-.31-2.94-.28-3.27-.07-3.49-.25-7.48-.12-2.78-.32-4.71.41-6.94.13-.4.24-.65.35-.87,1.28-2.54,4.01-3.31,4.21-3.36,2.48-.66,5.19.2,7.06,2.2,1.45,1.61,2.9,2.54,3.88,3.07.93.5,1.91,1.02,3.33,1.22,1.95.27,3.48-.29,4.22-.56,1.82-.68,3.02-1.74,3.63-2.38.49-.5,1.68-1.77,2.28-3.81.76-2.57.12-4.75-.19-5.64-.84-2.47-2.31-3.99-3.38-5.16-10.2-11.22,10.1,8.92-8.17-8.92-4.89-4.78-8.14-7.94-9.86-9.61-1.02.39-1.9.51-2.51.55-.95.05-1.62.09-2.08-.36-.47-.46-.45-1.16-.42-2.08.02-.62.13-1.59.59-2.74-.79-1.03-2.19-2.61-4.4-3.87-2.95-1.67-5.68-1.82-7.22-1.89-1.33-.06-6.14-.11-10.79,3-1.29.87-2.24,1.75-2.86,2.39.83,1.53.87,2.8.83,3.45-.04.67-.08,1.25-.51,1.67-.6.58-1.57.48-2.71.35-.98-.11-1.76-.35-2.27-.54-3.98,4.09-7.07,7.23-9.1,9.29-2.41,2.44-4.58,5.12-7.04,7.51-1.54,1.5-2.71,2.55-3.66,4.5-.51,1.06-1.73,3.59-.94,6.48.56,2.04,1.86,3.32,2.91,4.34.84.83,1.91,1.87,3.66,2.51,2.86,1.04,5.44.22,6.1,0,1.88-.63,3.24-1.76,4.57-2.87,1.76-1.46,1.82-1.99,2.91-2.38,2.35-.83,4.73.66,5,.83,1.77,1.15,2.44,2.86,2.91,4.13.76,2.03.75,3.62.56,8.17-.19,4.6-.28,6.9-.38,7.7-.39,3.35-.82,7.42-2.63,11.54-3.03,6.9-8.12,10.82-9.95,12.11-8.54,6.04-17.56,5.54-20.37,5.35-1.67-.12-5.97-.45-10.79-2.63-1.31-.59-2.25-1.13-6.01-3.38-3.56-2.13-6.54-3.93-8.73-5.26-.53-.35-1.62-1.18-2.16-2.63-.93-2.5.53-4.8.94-5.44,1.74-2.75,4.73-3.36,5.35-3.47.37-.09.89-.24,1.5-.47.89-.33,2.63-1.01,4.22-2.53.8-.76,2.02-1.93,2.53-3.85.47-1.75.11-3.17-.31-4.82-.36-1.4-.83-3.24-2.45-4.8-.88-.85-1.74-1.28-2.19-1.5-.36-.18-2.05-.97-4.94-.95-1.54,0-2.66.24-4.22.59-4.22.95-7.28,1.77-9.91,2.42-2.83.7-2.62.56-5.45,1.27-2.63.66-5.76,1.5-9.29,2.53.07.53.18,1.97-.71,3.18-.23.31-.57.75-1.17.95-.88.29-1.7-.16-2.14-.39-1.16-.63-1.7-1.68-1.9-2.14-.87.06-2.14.23-3.57.75-3.36,1.22-5.28,3.49-6.19,4.6-2.77,3.36-3.42,6.88-3.66,8.26-.65,3.75,0,6.83.51,8.54.55-.05,1.63-.06,2.74.54.56.3,1.52.82,1.67,1.74.13.8-.41,1.47-1.02,2.25-.71.89-1.48,1.42-1.99,1.72,2.65,8.65,5.3,17.3,7.95,25.95.37.95,1.49,3.4,4.13,4.88,1.07.6,2.05.83,2.53.94.93.21,3.45.63,6.24-.55.7-.3,2.23-.97,3.56-2.55,1.54-1.82,1.92-3.8,2.02-4.6.08-.56.06-.86-.66-6.38-.23-1.79-.33-2.51,0-3.47.54-1.6,1.79-2.49,2.25-2.82,1.68-1.18,3.44-1.2,4.11-1.17,1.93.09,3.27.98,3.77,1.36,4.85,3.13,9.7,6.26,14.55,9.39,1.46,1.3,3.35,3.21,5.16,5.82,3.53,5.08,4.7,9.81,4.97,10.98,2.26,9.76-1.17,17.76-2.06,19.71-2.84,6.18-7.06,9.82-8.54,11.07-1.29,1.09-2.55,1.91-4.88,3.47-3.8,2.55-7.04,4.47-9.31,5.76-2.22,1.53-5.12,1.63-7.34.25-2.34-1.45-3.16-4.09-3.09-5.95.03-.94.27-1.69.48-2.2.34-1.01.75-2.62.69-4.61-.04-1.45-.11-3.54-1.52-5.56-1.4-1.99-3.31-2.77-4.14-3.1-.74-.29-3.29-1.19-6.31-.3-.43.13-1.76.55-3.17,1.62-2.52,1.91-3.47,4.49-3.82,5.65-.61,2.02-1.52,5.08-2.61,8.86-.57,1.99-.93,3.27-1.62,5.69-.73,2.58-1.78,6.3-3.1,10.89.55.5,1.23,1.21,1.88,2.16.71,1.04,1.09,1.61.94,2.25-.18.79-1.04,1.2-1.88,1.6-1.06.51-2.03.63-2.63.66-.44.99-.98,2.51-1.13,4.41-.32,4.22,1.53,7.37,2.44,8.92,3.42,5.81,9.13,8.11,11.17,8.82.28-.52.78-1.27,1.6-1.97.75-.64,1.54-1.32,2.35-1.13.72.17,1.09.94,1.54,1.9.53,1.12.73,2.15.8,2.89,1.84.51,4.48,1.21,7.7,1.97,4.06.96,4.24.87,7.79,1.69,8.01,1.84,8.87,2.69,12.29,2.53,2.19-.1,5.5-.3,7.32-2.63.81-1.03,1.08-2.18,1.6-4.32.52-2.18.86-3.58.47-5.26-.58-2.48-2.36-3.96-3-4.5-1.07-.9-2.06-1.34-3.28-1.88-1.66-.73-3.11-1.11-4.13-1.31-.41-.3-2.23-1.7-2.63-4.22-.5-3.18,1.68-5.43,1.97-5.73.2-.2.4-.38,1.69-1.22,3.22-2.11,5.28-3.2,8.32-4.97.17-.1.55-.33,1.08-.61,1.01-.54,1.86-.93,2.43-1.19,2.4-1.28,6.78-3.22,12.58-3.57,2.6-.16,9.33-.23,16.42,3.66,9.87,5.41,13.43,14.66,14.45,17.46.55,1.51.9,2.81,1.13,3.75.47,3.18.85,6.7,1.03,10.51.18,3.72.15,7.18,0,10.32-.12.62-.52,2.2-1.92,3.33-.98.79-2.02,1.01-2.75,1.17-.61.13-1.68.34-3.02.05-1.61-.35-2.69-1.25-3.19-1.74-.49-.58-1.18-1.32-2.11-2.06-.54-.44-1.61-1.29-3.05-1.92-1.17-.51-3.81-1.68-6.48-.7-1.34.49-2.11,1.31-3.61,2.91-1.35,1.44-2.24,2.38-2.78,3.94-.96,2.76-.1,5.28.2,6.1.75,2.09,1.99,3.37,2.91,4.32,5.4,5.58,8.09,8.36,7.98,8.26,2.52,2.25,6.05,5.63,10.14,10.32.55-.17,1.35-.38,2.35-.48,1.34-.13,2.44-.24,2.97.39.33.4.29.96.17,2.05-.12,1.22-.39,2.21-.61,2.88.77,1.09,2.26,2.87,4.69,4.16,3.27,1.73,6.33,1.56,8.43,1.45,4.67-.26,7.88-2.11,8.65-2.57,1.51-.91,2.63-1.89,3.38-2.63-.16-.66-.36-1.57-.54-2.68-.32-1.87-.25-2.22-.04-2.49.51-.68,1.69-.59,2.75-.51,1.1.08,1.97.38,2.53.61,2.49-2.37,4.46-4.37,5.78-5.74,5.73-5.94,5.28-6.24,9.24-10.03,2.38-2.28,3.28-2.88,4.32-4.69.62-1.09,2.68-4.7,1.33-7.97-.51-1.25-1.37-2.08-3-3.66-1.58-1.53-2.64-2.07-2.97-2.23-.35-.17-1.56-.74-3.02-.87-3.26-.3-5.8,1.8-6.42,2.35-.43.37-1.08.91-1.88,1.54-1.13.89-1.7,1.33-2.15,1.56-1.99,1.01-4.29.21-4.58.11-3.43-1.24-4.21-5.12-4.25-5.31-.03-2.45-.05-5.91.05-10.07.11-4.73.17-7.13.55-9.19.37-2.02,1.25-6.66,4.51-11.56.66-.99,3.63-5.34,9.32-8.88,1.83-1.14,6.96-4.06,14.25-4.68,6.84-.58,11.99,1.17,13.28,1.64,1.43.52,2.55,1.05,4.43,1.95,4.03,1.93,7.21,3.82,9.4,5.2.54.24,1.3.62,2.14,1.18,1.16.78,2.15,1.44,2.8,2.62.88,1.6.64,3.25.57,3.68-.53,3.56-4.11,5.29-4.46,5.45-.85.23-2.06.6-3.45,1.18-1.38.57-2.15.89-2.97,1.44-.58.39-3.1,2.09-3.8,5.2-.41,1.83-.01,3.33.32,4.59.31,1.17.77,2.87,2.25,4.45,1.94,2.07,4.33,2.54,5.03,2.67,2.27.41,4.1-.13,5.02-.4,4.91-1.42,10.02-2.06,14.95-3.4,2.43-.67,6.23-1.69,11.01-2.93.05-.54.19-1.4.64-2.35.43-.91.9-1.92,1.76-2.08.72-.14,1.38.38,2.4,1.2.75.59,1.27,1.19,1.62,1.62,1.61-.22,4.08-.82,6.46-2.56,1.79-1.31,2.84-2.76,3.54-3.74,1.5-2.11,2.19-4.01,2.44-4.76.23-.69.97-3.03.92-6.19-.03-2-.37-3.66-.7-4.83-1.39-.08-2.47-.38-3.19-.64Zm-82.21-38.22c-.61,1.39-6.51,14.22-21.02,17.83-12.44,3.09-25.13-2.09-32.29-11.17-6.57-8.34-6.63-17.65-6.57-20.08.08-3.22.75-10.44,5.73-17.36,5.76-8.02,15.73-13.47,26.65-13.05,12.69.49,23.68,8.81,28.06,19.99,4.58,11.68.21,22.07-.56,23.84Z"/>
</svg>